<?xml version="1.0" encoding="utf-8"?>
<!-- Generator: Adobe Illustrator 14.0.0, SVG Export Plug-In . SVG Version: 6.00 Build 43363)  -->
<!DOCTYPE svg PUBLIC "-//W3C//DTD SVG 1.1//EN" "http://www.w3.org/Graphics/SVG/1.1/DTD/svg11.dtd">
<svg version="1.1" id="Layer_1" xmlns="http://www.w3.org/2000/svg" xmlns:xlink="http://www.w3.org/1999/xlink" x="0px" y="0px"
	 width="100px" height="100px" viewBox="0 0 100 100" enable-background="new 0 0 100 100" xml:space="preserve">
<path fill="#61DAFB" d="M92.011,61.762l-3.57-10.968c0.496-2.635,0.747-5.606,0.747-8.924c0-7.484-2.141-13.727-6.414-18.733
	c0.845-2.532,1.267-5.175,1.267-7.929c0-3.601-0.815-7.003-2.446-10.208c-3.319,0.055-6.272,0.673-8.86,1.856
	c-2.587,1.182-5.513,3.065-8.772,5.653c-4.162-1.013-8.577-1.519-13.245-1.519c-5.062,0-9.897,0.563-14.511,1.687
	c-3.431-2.643-6.413-4.583-8.942-5.821C24.733,5.618,21.751,5,18.32,5c-1.574,3.205-2.362,6.607-2.362,10.208
	c0,2.812,0.422,5.483,1.266,8.014c-4.274,5.007-6.41,11.221-6.41,18.645c0,3.3,0.254,6.26,0.758,8.883L7.987,61.762
	c-0.225,0.675-0.225,1.349,0,2.023c0.225,0.674,0.621,1.21,1.183,1.604L50,95L29.724,69.034c0.08,0.025,0.159,0.058,0.239,0.082
	c2.193,0.673,4.584,1.154,7.172,1.436c1.833,0.199,3.519,0.353,5.07,0.468L50,95l7.771-23.909c0.264-0.012,0.534-0.022,0.792-0.033
	c2.417-0.113,5.115-0.45,8.097-1.013c1.202-0.227,2.339-0.494,3.44-0.785L50,95l40.831-29.61c0.563-0.395,0.955-0.931,1.18-1.604
	C92.238,63.11,92.238,62.437,92.011,61.762z M42.615,37.647c2.193,0.34,4.638,0.507,7.339,0.507c2.7,0,5.174-0.167,7.421-0.507
	c4.838-0.674,7.902-1.012,9.196-1.012c0.814,0,1.587,0.076,2.329,0.207l-1.568,4.829c-0.654-0.426-1.403-0.634-2.274-0.565
	c-1.405,0.114-2.561,0.647-3.458,1.602c-0.9,0.957-1.574,2.165-2.026,3.628c-0.095,0.313-0.175,0.616-0.248,0.914H40.652
	c-0.087-0.308-0.19-0.612-0.314-0.914c-0.505-1.235-1.18-2.447-2.022-3.628c-0.844-1.18-1.97-1.715-3.375-1.602
	c-0.841,0.068-1.58,0.304-2.239,0.673l-1.604-4.942c0.738-0.127,1.507-0.202,2.321-0.202C34.77,36.635,37.833,36.973,42.615,37.647z
	 M38.99,66.497c-2.082-0.338-4.276-0.815-6.581-1.433c-2.307-0.621-4.219-1.545-5.737-2.783c-1.52-1.238-2.784-2.869-3.799-4.892
	c-1.01-2.025-1.518-4.417-1.518-7.172c0.016-1.033,0.117-2.02,0.289-2.968h7.567c-0.269,1.092-0.386,2.084-0.342,2.968
	c0.056,1.124,0.252,2.391,0.591,3.797c0.337,1.405,1.011,2.615,2.022,3.627c1.013,1.013,2.166,1.546,3.459,1.603
	c1.143,0.05,2.146-0.39,3.026-1.261l2.842,8.742C40.184,66.665,39.574,66.594,38.99,66.497z M60.922,66.497
	c-0.55,0.061-1.121,0.11-1.706,0.155l2.811-8.646c0.905,0.762,1.914,1.189,3.032,1.238c1.292,0.057,2.418-0.478,3.372-1.603
	c0.957-1.124,1.632-2.334,2.025-3.627c0.395-1.294,0.591-2.56,0.591-3.797c0.086-1.021-0.009-2.011-0.277-2.968h7.615
	c0.165,0.949,0.256,1.935,0.256,2.968c-0.057,2.645-0.563,5.034-1.518,7.172c-0.957,2.135-2.224,3.767-3.798,4.892
	c-1.576,1.124-3.516,2.054-5.821,2.783C65.197,65.795,63.004,66.275,60.922,66.497z"/>
</svg>
